<svg width="80" height="80" viewBox="0 0 80 80" fill="none" xmlns="http://www.w3.org/2000/svg">
<rect width="80" height="80" fill="url(#paint0_linear_107_119)"/>
<path d="M14 28.889V22.0998H18.097V23.228H15.172V24.6158H17.9394V25.744H15.172V27.7608H18.097V28.889H14Z" fill="white"/>
<path d="M18.7432 28.889L20.5061 26.393L18.7432 23.897H19.9841L21.1265 25.5144L22.2689 23.897H23.5098L21.747 26.393L23.5098 28.889H22.2689L21.1265 27.2716L19.9841 28.889H18.7432Z" fill="white"/>
<path d="M24.1983 23.897H25.2422V24.3363C25.3473 24.2564 25.5114 24.1466 25.7347 24.0068C25.9579 23.867 26.2468 23.7971 26.6013 23.7971C26.9559 23.7971 27.2743 23.8703 27.5566 24.0168C27.839 24.1632 28.0753 24.3562 28.2657 24.5958C28.4561 24.8355 28.6006 25.1084 28.6991 25.4145C28.7975 25.7207 28.8468 26.0335 28.8468 26.353C28.8468 26.7125 28.7975 27.0519 28.6991 27.3714C28.6071 27.6909 28.4693 27.9704 28.2854 28.2101C28.1016 28.4497 27.8685 28.6394 27.5862 28.7791C27.3104 28.9189 26.9953 28.9888 26.6407 28.9888C26.2862 28.9888 26.0006 28.9322 25.7839 28.8191C25.5672 28.7059 25.3998 28.6094 25.2816 28.5295V30.6861H24.1983V23.897ZM27.7634 26.393C27.7634 25.8938 27.642 25.521 27.3991 25.2748C27.1561 25.0218 26.8508 24.8954 26.4831 24.8954C26.1155 24.8954 25.8167 25.0218 25.5869 25.2748C25.3571 25.521 25.2422 25.8938 25.2422 26.393C25.2422 26.8922 25.3604 27.2682 25.5968 27.5212C25.8332 27.7674 26.1286 27.8906 26.4831 27.8906C26.8377 27.8906 27.1397 27.7741 27.3892 27.5411C27.6387 27.3015 27.7634 26.9188 27.7634 26.393Z" fill="white"/>
<path d="M29.588 26.4329C29.588 26.1001 29.6406 25.774 29.7456 25.4545C29.8572 25.135 30.0115 24.8554 30.2085 24.6158C30.412 24.3695 30.6549 24.1732 30.9373 24.0268C31.2196 23.8737 31.5315 23.7971 31.8729 23.7971C32.5557 23.7971 33.1006 24.0434 33.5077 24.5359C33.9213 25.0218 34.1446 25.7274 34.1774 26.6525H30.6812C30.7272 27.0852 30.865 27.4013 31.0948 27.601C31.3312 27.7941 31.6135 27.8906 31.9418 27.8906C32.1322 27.8906 32.2898 27.8639 32.4145 27.8107C32.5458 27.7574 32.6509 27.6942 32.7297 27.621C32.815 27.5478 32.8807 27.4712 32.9267 27.3914C32.9726 27.3115 33.0087 27.2449 33.035 27.1917H34.1183C34.1052 27.3581 34.0527 27.5478 33.9607 27.7608C33.8688 27.9671 33.7375 28.1635 33.5668 28.3498C33.3961 28.5295 33.1761 28.6826 32.907 28.8091C32.6378 28.9289 32.3193 28.9888 31.9517 28.9888C31.5971 28.9888 31.2721 28.9189 30.9767 28.7791C30.6812 28.6394 30.4317 28.453 30.2282 28.22C30.0246 27.9871 29.8671 27.7175 29.7555 27.4113C29.6438 27.0985 29.588 26.7724 29.588 26.4329ZM31.9123 24.6957C31.6496 24.6957 31.4133 24.7722 31.2032 24.9253C30.9931 25.0784 30.8453 25.3213 30.76 25.6541H33.0153C32.9825 25.348 32.8676 25.1117 32.6706 24.9453C32.4802 24.7789 32.2274 24.6957 31.9123 24.6957ZM31.538 22H33.3501L32.2274 23.3978H31.2426L31.538 22Z" fill="white"/>
<path d="M38.1385 25.0551C38.0269 25.0085 37.912 24.9686 37.7938 24.9353C37.6822 24.8954 37.5345 24.8754 37.3506 24.8754C36.9961 24.8754 36.717 24.9786 36.5135 25.1849C36.31 25.3846 36.2082 25.7839 36.2082 26.383V28.889H35.0855V23.897H36.1688V24.4561C36.3067 24.2897 36.4675 24.1399 36.6514 24.0068C36.8418 23.867 37.0946 23.7971 37.4097 23.7971C37.5541 23.7971 37.6953 23.8138 37.8332 23.847C37.9711 23.8737 38.0925 23.9103 38.1976 23.9569L38.1385 25.0551Z" fill="white"/>
<path d="M38.8171 22H39.9398V23.1981H38.8171V22ZM38.8171 23.897H39.9398V28.889H38.8171V23.897Z" fill="white"/>
<path d="M40.8791 26.4329C40.8791 26.1001 40.9317 25.774 41.0367 25.4545C41.1483 25.135 41.3026 24.8554 41.4996 24.6158C41.7031 24.3695 41.946 24.1732 42.2284 24.0268C42.5107 23.8737 42.8226 23.7971 43.164 23.7971C43.8468 23.7971 44.3917 24.0434 44.7988 24.5359C45.2124 25.0218 45.4357 25.7274 45.4685 26.6525H41.9723C42.0183 27.0852 42.1561 27.4013 42.3859 27.601C42.6223 27.7941 42.9046 27.8906 43.2329 27.8906C43.4233 27.8906 43.5809 27.8639 43.7056 27.8107C43.8369 27.7574 43.942 27.6942 44.0208 27.621C44.1061 27.5478 44.1718 27.4712 44.2178 27.3914C44.2637 27.3115 44.2998 27.2449 44.3261 27.1917H45.4094C45.3963 27.3581 45.3438 27.5478 45.2518 27.7608C45.1599 27.9671 45.0286 28.1635 44.8579 28.3498C44.6872 28.5295 44.4673 28.6826 44.1981 28.8091C43.9289 28.9289 43.6104 28.9888 43.2428 28.9888C42.8882 28.9888 42.5632 28.9189 42.2678 28.7791C41.9723 28.6394 41.7228 28.453 41.5193 28.22C41.3157 27.9871 41.1582 27.7175 41.0466 27.4113C40.9349 27.0985 40.8791 26.7724 40.8791 26.4329ZM43.2034 24.6957C42.9407 24.6957 42.7044 24.7722 42.4943 24.9253C42.2842 25.0784 42.1365 25.3213 42.0511 25.6541H44.3064C44.2736 25.348 44.1587 25.1117 43.9617 24.9453C43.7713 24.7789 43.5185 24.6957 43.2034 24.6957Z" fill="white"/>
<path d="M50.4637 28.889H49.341V25.5942C49.341 25.3613 49.2589 25.1782 49.0947 25.0451C48.9372 24.912 48.7336 24.8454 48.4841 24.8454C48.2872 24.8454 48.123 24.8854 47.9917 24.9653C47.867 25.0451 47.7685 25.1483 47.6963 25.2748C47.624 25.3946 47.5715 25.5277 47.5387 25.6741C47.5124 25.8205 47.4993 25.9603 47.4993 26.0934V28.889H46.3766V23.897H47.4599V24.2963C47.6634 24.1366 47.8867 24.0134 48.1296 23.9269C48.3791 23.8404 48.6286 23.7971 48.8781 23.7971C49.0882 23.7971 49.2884 23.8271 49.4788 23.887C49.6758 23.9469 49.8465 24.0401 49.991 24.1665C50.1354 24.293 50.2503 24.4561 50.3356 24.6557C50.421 24.8488 50.4637 25.0817 50.4637 25.3546V28.889Z" fill="white"/>
<path d="M51.4116 26.4329C51.4116 26.0469 51.4674 25.6941 51.579 25.3746C51.6972 25.0484 51.8581 24.7689 52.0616 24.5359C52.2651 24.303 52.5081 24.1233 52.7904 23.9968C53.0727 23.8637 53.3813 23.7971 53.7161 23.7971C54.1429 23.7971 54.4942 23.8803 54.7699 24.0467C55.0457 24.2131 55.2656 24.4128 55.4298 24.6458C55.5939 24.8721 55.7154 25.1117 55.7942 25.3646C55.8729 25.6175 55.9287 25.8272 55.9616 25.9936H54.8192C54.7732 25.6874 54.6616 25.4278 54.4843 25.2148C54.3136 25.0019 54.0444 24.8954 53.6767 24.8954C53.355 24.8954 53.076 25.0218 52.8396 25.2748C52.6098 25.521 52.4949 25.8938 52.4949 26.393C52.4949 26.9188 52.623 27.3015 52.879 27.5411C53.1351 27.7741 53.4272 27.8906 53.7555 27.8906C53.9394 27.8906 54.0969 27.8606 54.2282 27.8007C54.3596 27.7408 54.4679 27.6643 54.5532 27.5711C54.6386 27.4712 54.7075 27.3614 54.7601 27.2416C54.8192 27.1218 54.8717 27.0053 54.9176 26.8922H55.9419C55.9419 27.0985 55.8959 27.3248 55.804 27.5711C55.7121 27.8173 55.5709 28.047 55.3805 28.26C55.1967 28.4663 54.9603 28.6394 54.6714 28.7791C54.3825 28.9189 54.0444 28.9888 53.657 28.9888C53.3222 28.9888 53.0136 28.9189 52.7313 28.7791C52.4555 28.6394 52.2192 28.453 52.0222 28.22C51.8318 27.9871 51.6808 27.7175 51.5692 27.4113C51.4641 27.0985 51.4116 26.7724 51.4116 26.4329Z" fill="white"/>
<path d="M56.6617 26.4329C56.6617 26.1001 56.7142 25.774 56.8192 25.4545C56.9309 25.135 57.0851 24.8554 57.2821 24.6158C57.4857 24.3695 57.7286 24.1732 58.0109 24.0268C58.2932 23.8737 58.6051 23.7971 58.9465 23.7971C59.6293 23.7971 60.1743 24.0434 60.5813 24.5359C60.995 25.0218 61.2182 25.7274 61.251 26.6525H57.7548C57.8008 27.0852 57.9387 27.4013 58.1685 27.601C58.4048 27.7941 58.6872 27.8906 59.0154 27.8906C59.2058 27.8906 59.3634 27.8639 59.4882 27.8107C59.6195 27.7574 59.7245 27.6942 59.8033 27.621C59.8887 27.5478 59.9543 27.4712 60.0003 27.3914C60.0462 27.3115 60.0824 27.2449 60.1086 27.1917H61.192C61.1788 27.3581 61.1263 27.5478 61.0344 27.7608C60.9425 27.9671 60.8111 28.1635 60.6404 28.3498C60.4697 28.5295 60.2498 28.6826 59.9806 28.8091C59.7114 28.9289 59.393 28.9888 59.0253 28.9888C58.6707 28.9888 58.3458 28.9189 58.0503 28.7791C57.7548 28.6394 57.5053 28.453 57.3018 28.22C57.0983 27.9871 56.9407 27.7175 56.8291 27.4113C56.7175 27.0985 56.6617 26.7724 56.6617 26.4329ZM58.9859 24.6957C58.7233 24.6957 58.4869 24.7722 58.2768 24.9253C58.0667 25.0784 57.919 25.3213 57.8336 25.6541H60.0889C60.0561 25.348 59.9412 25.1117 59.7442 24.9453C59.5538 24.7789 59.3011 24.6957 58.9859 24.6957Z" fill="white"/>
<path d="M64.7985 25.3347C64.8051 25.1084 64.723 24.9386 64.5523 24.8255C64.3816 24.7057 64.1485 24.6458 63.853 24.6458C63.5707 24.6458 63.3705 24.7023 63.2523 24.8155C63.1407 24.922 63.0849 25.0385 63.0849 25.1649C63.0849 25.3713 63.2359 25.511 63.5379 25.5843C63.8465 25.6508 64.1813 25.734 64.5424 25.8339C64.9035 25.927 65.2351 26.0801 65.5371 26.2931C65.8457 26.4995 66 26.8422 66 27.3215C66 27.7874 65.8293 28.1834 65.4879 28.5096C65.153 28.8291 64.6475 28.9888 63.9712 28.9888C63.5313 28.9888 63.1735 28.9289 62.8977 28.8091C62.622 28.6893 62.4086 28.5429 62.2576 28.3698C62.1066 28.1901 62.0015 28.0037 61.9424 27.8107C61.8899 27.611 61.8636 27.438 61.8636 27.2915H62.9864C63.0258 27.4845 63.121 27.6676 63.272 27.8406C63.4295 28.007 63.6922 28.0902 64.0599 28.0902C64.329 28.0902 64.5391 28.037 64.6902 27.9305C64.8412 27.824 64.9167 27.6676 64.9167 27.4613C64.9167 27.215 64.7624 27.0552 64.4538 26.982C64.1518 26.9021 63.8202 26.8189 63.4591 26.7324C63.098 26.6392 62.7631 26.4995 62.4546 26.3131C62.1525 26.1201 62.0015 25.7873 62.0015 25.3147C62.0015 25.1217 62.0344 24.9353 62.1 24.7556C62.1722 24.5692 62.2838 24.4061 62.4349 24.2664C62.5924 24.1266 62.796 24.0134 63.0455 23.9269C63.295 23.8404 63.597 23.7971 63.9515 23.7971C64.3389 23.7971 64.6606 23.8537 64.9167 23.9668C65.1727 24.08 65.373 24.2164 65.5174 24.3762C65.6684 24.5359 65.7735 24.7057 65.8326 24.8854C65.8917 25.0584 65.9212 25.2082 65.9212 25.3347H64.7985Z" fill="white"/>
<path d="M17.7018 42.6775C17.0518 42.6775 16.4403 42.5168 15.8674 42.1953C15.3055 41.8626 14.8538 41.3803 14.5123 40.7484C14.1708 40.1164 14 39.3514 14 38.4533V38.1872C14 37.2891 14.1708 36.5241 14.5123 35.8921C14.8538 35.2602 15.3055 34.7834 15.8674 34.4619C16.4293 34.1293 17.0408 33.963 17.7018 33.963C18.1976 33.963 18.6107 34.0239 18.9412 34.1459C19.2828 34.2568 19.5582 34.4009 19.7675 34.5783C19.9769 34.7557 20.1366 34.9442 20.2468 35.1438H20.5443V30.8031H22.6265V42.4447H20.5773V41.4469H20.2798C20.0925 41.7573 19.8006 42.04 19.404 42.295C19.0184 42.55 18.451 42.6775 17.7018 42.6775ZM18.3298 40.8481C18.9688 40.8481 19.5031 40.643 19.9328 40.2328C20.3625 39.8115 20.5773 39.2017 20.5773 38.4034V38.2371C20.5773 37.4388 20.3625 36.8346 19.9328 36.4243C19.5141 36.003 18.9798 35.7924 18.3298 35.7924C17.6908 35.7924 17.1564 36.003 16.7268 36.4243C16.2971 36.8346 16.0823 37.4388 16.0823 38.2371V38.4034C16.0823 39.2017 16.2971 39.8115 16.7268 40.2328C17.1564 40.643 17.6908 40.8481 18.3298 40.8481Z" fill="white"/>
<path d="M28.67 42.6775C27.8547 42.6775 27.133 42.5057 26.5051 42.162C25.8881 41.8072 25.4033 41.3138 25.0508 40.6818C24.7092 40.0388 24.5385 39.2848 24.5385 38.42V38.2205C24.5385 37.3557 24.7092 36.6073 25.0508 35.9753C25.3923 35.3322 25.8716 34.8389 26.4885 34.4952C27.1055 34.1404 27.8216 33.963 28.6369 33.963C29.4412 33.963 30.1408 34.1459 30.7357 34.5118C31.3306 34.8666 31.7933 35.3655 32.1239 36.0086C32.4544 36.6405 32.6196 37.3778 32.6196 38.2205V38.9356H26.6538C26.6758 39.501 26.8852 39.9612 27.2818 40.316C27.6784 40.6708 28.1632 40.8481 28.7361 40.8481C29.32 40.8481 29.7496 40.7206 30.0251 40.4656C30.3005 40.2106 30.5098 39.9279 30.6531 39.6175L32.3552 40.5155C32.201 40.8038 31.9751 41.1198 31.6777 41.4635C31.3912 41.7961 31.0056 42.0844 30.5209 42.3283C30.0361 42.5611 29.4191 42.6775 28.67 42.6775ZM26.6703 37.3723H30.5043C30.4603 36.8955 30.2675 36.513 29.9259 36.2248C29.5954 35.9365 29.1602 35.7924 28.6204 35.7924C28.0585 35.7924 27.6123 35.9365 27.2818 36.2248C26.9513 36.513 26.7474 36.8955 26.6703 37.3723Z" fill="white"/>
<path d="M37.8773 42.6775C36.8087 42.6775 35.9328 42.4447 35.2497 41.979C34.5666 41.5134 34.1535 40.8481 34.0103 39.9833L35.9273 39.4844C36.0044 39.8725 36.1311 40.1774 36.3074 40.3991C36.4947 40.6209 36.7205 40.7816 36.9849 40.8814C37.2604 40.9701 37.5578 41.0145 37.8773 41.0145C38.3621 41.0145 38.7201 40.9313 38.9515 40.765C39.1829 40.5876 39.2986 40.3714 39.2986 40.1164C39.2986 39.8614 39.1884 39.6674 38.968 39.5343C38.7477 39.3902 38.3951 39.2738 37.9104 39.1851L37.4477 39.1019C36.8748 38.991 36.3514 38.8414 35.8777 38.6529C35.404 38.4533 35.0239 38.1817 34.7374 37.838C34.451 37.4943 34.3077 37.0508 34.3077 36.5075C34.3077 35.687 34.6052 35.0606 35.2001 34.6282C35.7951 34.1847 36.5773 33.963 37.5468 33.963C38.4612 33.963 39.2214 34.1681 39.8274 34.5783C40.4333 34.9885 40.83 35.5263 41.0172 36.1915L39.0837 36.7902C38.9956 36.3689 38.8138 36.0695 38.5384 35.8921C38.2739 35.7148 37.9434 35.6261 37.5468 35.6261C37.1502 35.6261 36.8472 35.6981 36.6379 35.8423C36.4286 35.9753 36.3239 36.1638 36.3239 36.4077C36.3239 36.6738 36.4341 36.8734 36.6544 37.0064C36.8748 37.1284 37.1722 37.2226 37.5468 37.2891L38.0095 37.3723C38.6265 37.4832 39.1829 37.6328 39.6786 37.8213C40.1854 37.9987 40.5821 38.2593 40.8685 38.603C41.166 38.9356 41.3147 39.3902 41.3147 39.9667C41.3147 40.8315 41.0007 41.5023 40.3727 41.979C39.7558 42.4447 38.924 42.6775 37.8773 42.6775Z" fill="white"/>
<path d="M43.1394 42.4447V34.1958H45.2217V42.4447H43.1394ZM44.1805 33.2312C43.8059 33.2312 43.4864 33.1092 43.222 32.8653C42.9686 32.6214 42.8419 32.2999 42.8419 31.9007C42.8419 31.5016 42.9686 31.1801 43.222 30.9361C43.4864 30.6922 43.8059 30.5703 44.1805 30.5703C44.5661 30.5703 44.8856 30.6922 45.139 30.9361C45.3924 31.1801 45.5191 31.5016 45.5191 31.9007C45.5191 32.2999 45.3924 32.6214 45.139 32.8653C44.8856 33.1092 44.5661 33.2312 44.1805 33.2312Z" fill="white"/>
<path d="M47.1325 38.3535V38.0874C47.1325 37.2226 47.3032 36.4853 47.6448 35.8755C47.9863 35.2546 48.438 34.7834 48.9999 34.4619C49.5728 34.1293 50.1953 33.963 50.8673 33.963C51.6165 33.963 52.1839 34.096 52.5695 34.3621C52.9551 34.6282 53.236 34.9054 53.4123 35.1937H53.7098V34.1958H55.759V43.9082C55.759 44.4737 55.5937 44.9227 55.2632 45.2553C54.9327 45.599 54.492 45.7709 53.9411 45.7709H48.4545V43.9415H53.214C53.5225 43.9415 53.6767 43.7752 53.6767 43.4426V41.2972H53.3793C53.2691 41.4746 53.1148 41.6575 52.9165 41.846C52.7182 42.0234 52.4538 42.1731 52.1233 42.295C51.7928 42.417 51.3741 42.478 50.8673 42.478C50.1953 42.478 49.5728 42.3172 48.9999 41.9957C48.438 41.6631 47.9863 41.1919 47.6448 40.5821C47.3032 39.9612 47.1325 39.2183 47.1325 38.3535ZM51.4623 40.6486C52.1013 40.6486 52.6356 40.4435 53.0653 40.0332C53.4949 39.623 53.7098 39.0465 53.7098 38.3036V38.1373C53.7098 37.3834 53.4949 36.8068 53.0653 36.4077C52.6466 35.9975 52.1123 35.7924 51.4623 35.7924C50.8233 35.7924 50.2889 35.9975 49.8592 36.4077C49.4296 36.8068 49.2147 37.3834 49.2147 38.1373V38.3036C49.2147 39.0465 49.4296 39.623 49.8592 40.0332C50.2889 40.4435 50.8233 40.6486 51.4623 40.6486Z" fill="white"/>
<path d="M58.0676 42.4447V34.1958H60.1168V35.2768H60.4142C60.5465 34.9885 60.7943 34.7169 61.1579 34.4619C61.5215 34.1958 62.0723 34.0628 62.8105 34.0628C63.4495 34.0628 64.0059 34.2124 64.4796 34.5118C64.9644 34.8001 65.339 35.2047 65.6034 35.7258C65.8678 36.2359 66 36.8346 66 37.522V42.4447H63.9177V37.6883C63.9177 37.0674 63.7635 36.6017 63.455 36.2913C63.1575 35.9808 62.7279 35.8256 62.166 35.8256C61.527 35.8256 61.0312 36.0418 60.6787 36.4742C60.3261 36.8955 60.1498 37.4887 60.1498 38.2537V42.4447H58.0676Z" fill="white"/>
<path d="M17.5611 55.9489C16.577 55.9489 15.7704 55.7343 15.1414 55.3051C14.5124 54.8759 14.1319 54.2628 14 53.4657L15.7653 53.0059C15.8364 53.3635 15.953 53.6446 16.1154 53.8489C16.2878 54.0533 16.4958 54.2015 16.7393 54.2935C16.993 54.3752 17.2669 54.4161 17.5611 54.4161C18.0075 54.4161 18.3373 54.3394 18.5503 54.1862C18.7634 54.0227 18.8699 53.8234 18.8699 53.5884C18.8699 53.3533 18.7685 53.1745 18.5655 53.0519C18.3626 52.919 18.038 52.8117 17.5916 52.73L17.1654 52.6533C16.6379 52.5511 16.156 52.4132 15.7197 52.2395C15.2834 52.0555 14.9334 51.8052 14.6696 51.4884C14.4058 51.1716 14.2739 50.7628 14.2739 50.2621C14.2739 49.5059 14.5479 48.9285 15.0957 48.53C15.6436 48.1212 16.3639 47.9169 17.2568 47.9169C18.0988 47.9169 18.7989 48.1059 19.3569 48.484C19.9149 48.8621 20.2802 49.3577 20.4526 49.9709L18.6721 50.5227C18.5909 50.1344 18.4235 49.8585 18.1699 49.695C17.9264 49.5315 17.622 49.4497 17.2568 49.4497C16.8915 49.4497 16.6125 49.5161 16.4197 49.649C16.227 49.7716 16.1306 49.9453 16.1306 50.1701C16.1306 50.4154 16.232 50.5993 16.435 50.722C16.6379 50.8344 16.9118 50.9212 17.2568 50.9825L17.6829 51.0592C18.251 51.1614 18.7634 51.2993 19.2199 51.473C19.6866 51.6365 20.0519 51.8767 20.3157 52.1935C20.5896 52.5 20.7266 52.919 20.7266 53.4504C20.7266 54.2475 20.4374 54.8657 19.8591 55.3051C19.291 55.7343 18.525 55.9489 17.5611 55.9489Z" fill="white"/>
<path d="M23.2287 58.8V57.1139H27.3377C27.6218 57.1139 27.7638 56.9606 27.7638 56.654V54.738H27.4899C27.4087 54.9117 27.2819 55.0854 27.1094 55.2591C26.9369 55.4329 26.7036 55.5759 26.4094 55.6883C26.1151 55.8007 25.7397 55.8569 25.2832 55.8569C24.6947 55.8569 24.1773 55.7241 23.7309 55.4584C23.2946 55.1825 22.9548 54.8044 22.7113 54.3241C22.4678 53.8438 22.346 53.292 22.346 52.6687V48.1315H24.2636V52.5154C24.2636 53.0876 24.4005 53.5168 24.6745 53.803C24.9585 54.0891 25.3593 54.2321 25.8767 54.2321C26.4652 54.2321 26.9217 54.038 27.2464 53.6497C27.571 53.2511 27.7334 52.6993 27.7334 51.9942V48.1315H29.6509V57.0832C29.6509 57.6044 29.4987 58.0182 29.1943 58.3248C28.89 58.6416 28.4841 58.8 27.9769 58.8H23.2287Z" fill="white"/>
<path d="M34.9197 55.9489C33.9356 55.9489 33.129 55.7343 32.5 55.3051C31.8709 54.8759 31.4905 54.2628 31.3586 53.4657L33.1239 53.0059C33.1949 53.3635 33.3116 53.6446 33.4739 53.8489C33.6464 54.0533 33.8544 54.2015 34.0979 54.2935C34.3515 54.3752 34.6255 54.4161 34.9197 54.4161C35.3661 54.4161 35.6958 54.3394 35.9089 54.1862C36.122 54.0227 36.2285 53.8234 36.2285 53.5884C36.2285 53.3533 36.127 53.1745 35.9241 53.0519C35.7212 52.919 35.3966 52.8117 34.9501 52.73L34.524 52.6533C33.9964 52.5511 33.5145 52.4132 33.0783 52.2395C32.642 52.0555 32.292 51.8052 32.0282 51.4884C31.7644 51.1716 31.6325 50.7628 31.6325 50.2621C31.6325 49.5059 31.9064 48.9285 32.4543 48.53C33.0022 48.1212 33.7225 47.9169 34.6153 47.9169C35.4574 47.9169 36.1575 48.1059 36.7155 48.484C37.2735 48.8621 37.6387 49.3577 37.8112 49.9709L36.0307 50.5227C35.9495 50.1344 35.7821 49.8585 35.5284 49.695C35.2849 49.5315 34.9806 49.4497 34.6153 49.4497C34.2501 49.4497 33.9711 49.5161 33.7783 49.649C33.5856 49.7716 33.4892 49.9453 33.4892 50.1701C33.4892 50.4154 33.5906 50.5993 33.7935 50.722C33.9964 50.8344 34.2704 50.9212 34.6153 50.9825L35.0415 51.0592C35.6096 51.1614 36.122 51.2993 36.5785 51.473C37.0452 51.6365 37.4105 51.8767 37.6742 52.1935C37.9482 52.5 38.0851 52.919 38.0851 53.4504C38.0851 54.2475 37.796 54.8657 37.2177 55.3051C36.6495 55.7343 35.8835 55.9489 34.9197 55.9489Z" fill="white"/>
<path d="M42.5084 55.7343C42.0112 55.7343 41.6054 55.581 41.2909 55.2745C40.9865 54.9577 40.8343 54.5387 40.8343 54.0175V49.7256H38.9473V48.1315H40.8343V45.7709H42.7519V48.1315H44.8216V49.7256H42.7519V53.6803C42.7519 53.9869 42.8939 54.1402 43.178 54.1402H44.639V55.7343H42.5084Z" fill="white"/>
<path d="M49.7292 55.9489C48.9784 55.9489 48.3139 55.7905 47.7356 55.4737C47.1674 55.1467 46.721 54.692 46.3963 54.1095C46.0818 53.5168 45.9246 52.8219 45.9246 52.0249V51.8409C45.9246 51.0439 46.0818 50.3541 46.3963 49.7716C46.7109 49.1789 47.1522 48.7242 47.7203 48.4074C48.2885 48.0804 48.948 47.9169 49.6987 47.9169C50.4394 47.9169 51.0836 48.0855 51.6315 48.4227C52.1794 48.7497 52.6055 49.2096 52.9098 49.8023C53.2142 50.3847 53.3664 51.0643 53.3664 51.8409V52.5H47.8725C47.8928 53.0212 48.0856 53.4453 48.4508 53.7723C48.8161 54.0993 49.2625 54.2628 49.7901 54.2628C50.3278 54.2628 50.7235 54.1453 50.9771 53.9103C51.2307 53.6752 51.4235 53.4146 51.5554 53.1285L53.1229 53.9562C52.9809 54.2219 52.7729 54.5132 52.499 54.83C52.2352 55.1365 51.8801 55.4022 51.4337 55.627C50.9872 55.8416 50.4191 55.9489 49.7292 55.9489ZM47.8878 51.0592H51.4184C51.3779 50.6198 51.2003 50.2672 50.8858 50.0015C50.5814 49.7358 50.1807 49.603 49.6835 49.603C49.1661 49.603 48.7552 49.7358 48.4508 50.0015C48.1465 50.2672 47.9588 50.6198 47.8878 51.0592Z" fill="white"/>
<path d="M55.0731 55.7343V48.1315H56.9602V48.9592H57.2342C57.366 48.7037 57.5842 48.484 57.8886 48.3001C58.1929 48.1059 58.5937 48.0088 59.0908 48.0088C59.6285 48.0088 60.0597 48.1161 60.3844 48.3307C60.709 48.5351 60.9576 48.8059 61.1301 49.1431H61.404C61.5765 48.8161 61.82 48.5453 62.1345 48.3307C62.449 48.1161 62.8954 48.0088 63.4737 48.0088C63.9404 48.0088 64.3615 48.111 64.7369 48.3154C65.1224 48.5096 65.4268 48.811 65.65 49.2198C65.8833 49.6183 66 50.1242 66 50.7373V55.7343H64.0825V50.8752C64.0825 50.4563 63.9759 50.1446 63.7629 49.9402C63.5498 49.7256 63.2505 49.6183 62.865 49.6183C62.4287 49.6183 62.0888 49.7614 61.8454 50.0475C61.612 50.3234 61.4953 50.722 61.4953 51.2431V55.7343H59.5778V50.8752C59.5778 50.4563 59.4713 50.1446 59.2582 49.9402C59.0452 49.7256 58.7459 49.6183 58.3603 49.6183C57.9241 49.6183 57.5842 49.7614 57.3407 50.0475C57.1073 50.3234 56.9907 50.722 56.9907 51.2431V55.7343H55.0731Z" fill="white"/>
<defs>
<linearGradient id="paint0_linear_107_119" x1="-1.54334e-07" y1="80" x2="80" y2="-1.54334e-07" gradientUnits="userSpaceOnUse">
<stop stop-color="#5C00F2"/>
<stop offset="1" stop-color="#CF0258"/>
</linearGradient>
</defs>
</svg>
