<svg width="24" height="24" viewBox="0 0 24 24" fill="none" xmlns="http://www.w3.org/2000/svg">
<path fill="#FEFCFF" d="M5.6726 19.8615C5.24333 19.8615 4.88036 19.7132 4.5837 19.4165C4.28701 19.1198 4.13867 18.7569 4.13867 18.3276V5.67235C4.13867 5.24309 4.28701 4.88012 4.5837 4.58345C4.88036 4.28677 5.24435 4.13843 5.67565 4.13843H11.1848V5.06153H5.67715C5.5233 5.06153 5.38227 5.12563 5.25407 5.25383C5.12587 5.38203 5.06177 5.52305 5.06177 5.6769V18.3231C5.06177 18.4769 5.12587 18.6179 5.25407 18.7461C5.38227 18.8743 5.5233 18.9384 5.67715 18.9384H18.3233C18.4771 18.9384 18.6182 18.8743 18.7464 18.7461C18.8746 18.6179 18.9387 18.4769 18.9387 18.3231V12.8154H19.8618V18.3246C19.8618 18.7559 19.7134 19.1198 19.4167 19.4165C19.1201 19.7132 18.7571 19.8615 18.3278 19.8615H5.6726ZM9.76657 14.8923L9.10792 14.2336L18.2896 5.06153H13.8771V4.13843H19.8618V10.1231H18.9387V5.71055L9.76657 14.8923Z" />
</svg>
