<svg xmlns="http://www.w3.org/2000/svg" height="24" viewBox="0 96 960 960" width="24">
<path d="M224.615 896Q197 896 178.5 877.5 160 859 160 831.385v-510.77Q160 293 178.5 274.5 197 256 224.615 256h224.616v40H224.615q-9.23 0-16.923 7.692Q200 311.385 200 320.615v510.77q0 9.23 7.692 16.923Q215.385 856 224.615 856h510.77q9.23 0 16.923-7.692Q760 840.615 760 831.385V606.769h40v224.616Q800 859 781.5 877.5 763 896 735.385 896h-510.77Zm164.923-201.231-28.307-28.307L731.692 296H560v-40h240v240h-40V324.308L389.538 694.769Z"/>
</svg>