<svg width="214" height="162" viewBox="0 0 214 162" fill="none" xmlns="http://www.w3.org/2000/svg">
<rect width="214" height="162" fill="white"/>
<path d="M50.824 87V70.968H53.08V85.056H61.696V87H50.824ZM68.6815 87.288C64.9375 87.288 62.8495 84.576 62.8495 81.072C62.8495 77.304 65.3695 74.904 68.6335 74.904C72.4255 74.904 74.4175 78.192 74.1775 81.6H65.0095C65.1055 84.6 67.2175 85.512 68.6815 85.512C70.0255 85.512 70.9135 85.056 71.4655 84.336L73.4095 84.912C72.5455 86.304 70.9135 87.288 68.6815 87.288ZM68.6335 76.632C66.8335 76.632 65.2255 77.592 65.0335 79.992H72.0415C72.0175 78.312 70.7455 76.632 68.6335 76.632ZM81.331 87.288C77.923 87.288 75.787 84.696 75.787 81.096C75.787 77.544 78.019 74.904 81.547 74.904C83.683 74.904 85.267 76.128 86.035 77.592L84.187 78.264C83.659 77.304 82.627 76.68 81.403 76.68C79.603 76.68 77.971 78.072 77.971 81.072C77.971 84.072 79.627 85.512 81.403 85.512C82.699 85.512 83.707 84.84 84.235 83.952L86.083 84.624C85.195 86.16 83.443 87.288 81.331 87.288ZM87.355 75.096H89.371V72.096H91.387V75.096H93.691V76.704H91.387V83.688C91.387 84.912 91.459 85.224 92.611 85.224H93.691V87H92.179C89.899 87 89.371 86.496 89.371 84.024V76.704H87.355V75.096Z" fill="#623B74"/>
<path d="M126.848 87H123.2V75.096H126.08L126.728 77.28C127.472 75.36 128.744 74.664 130.568 74.76V78.408C130.184 78.36 129.92 78.336 129.584 78.336C127.808 78.336 126.848 79.104 126.848 81V87ZM131.857 77.88V75.096H137.785V87H134.113V77.88H131.857ZM135.961 73.128C134.761 73.128 133.801 72.144 133.801 70.968C133.801 69.768 134.761 68.808 135.961 68.808C137.161 68.808 138.121 69.768 138.121 70.968C138.121 72.144 137.161 73.128 135.961 73.128ZM145.524 87.288C141.588 87.288 139.428 84.744 139.428 80.976C139.428 77.232 141.9 74.76 145.524 74.76C147.564 74.76 149.796 75.528 150.9 77.88L147.852 78.984C147.468 77.976 146.652 77.592 145.74 77.592C144.42 77.592 143.148 78.48 143.148 81C143.148 83.592 144.444 84.456 145.74 84.456C146.748 84.456 147.468 84.024 147.876 83.328L150.852 84.408C149.628 86.568 147.42 87.288 145.524 87.288ZM151.896 80.976C151.896 77.184 154.8 74.76 158.28 74.76C162.192 74.76 164.616 77.76 164.376 81.96H155.568C155.688 83.64 156.984 84.456 158.328 84.456C159.456 84.456 160.272 84.096 160.728 83.568L163.632 84.624C162.384 86.448 160.368 87.288 158.424 87.288C154.56 87.288 151.896 84.912 151.896 80.976ZM158.376 77.472C157.008 77.472 155.784 78.168 155.568 79.8H160.992C160.944 78.264 159.792 77.472 158.376 77.472Z" fill="#444B5A"/>
<path d="M45.848 38.664H53.528V42H42.056V25.968H45.848V38.664ZM54.4666 35.976C54.4666 32.184 57.3706 29.76 60.8506 29.76C64.7626 29.76 67.1866 32.76 66.9466 36.96H58.1386C58.2586 38.64 59.5546 39.456 60.8986 39.456C62.0266 39.456 62.8426 39.096 63.2986 38.568L66.2026 39.624C64.9546 41.448 62.9386 42.288 60.9946 42.288C57.1306 42.288 54.4666 39.912 54.4666 35.976ZM60.9466 32.472C59.5786 32.472 58.3546 33.168 58.1386 34.8H63.5626C63.5146 33.264 62.3626 32.472 60.9466 32.472ZM74.1564 42.288C70.2204 42.288 68.0604 39.744 68.0604 35.976C68.0604 32.232 70.5324 29.76 74.1564 29.76C76.1964 29.76 78.4284 30.528 79.5324 32.88L76.4844 33.984C76.1004 32.976 75.2844 32.592 74.3724 32.592C73.0524 32.592 71.7804 33.48 71.7804 36C71.7804 38.592 73.0764 39.456 74.3724 39.456C75.3804 39.456 76.1004 39.024 76.5084 38.328L79.4844 39.408C78.2604 41.568 76.0524 42.288 74.1564 42.288ZM80.2651 32.88V30.096H82.2331V27.12H85.8811V30.096H88.4731V32.88H85.8811V37.68C85.8811 38.808 86.2411 39.024 87.4171 39.024H88.4731V42H86.1691C83.2411 42 82.2331 41.448 82.2331 38.64V32.88H80.2651Z" fill="#623B74"/>
<path d="M95.7909 42.288C92.0469 42.288 89.9589 39.576 89.9589 36.072C89.9589 32.304 92.4789 29.904 95.7429 29.904C99.5349 29.904 101.527 33.192 101.287 36.6H92.1189C92.2149 39.6 94.3269 40.512 95.7909 40.512C97.1349 40.512 98.0229 40.056 98.5749 39.336L100.519 39.912C99.6549 41.304 98.0229 42.288 95.7909 42.288ZM95.7429 31.632C93.9429 31.632 92.3349 32.592 92.1429 34.992H99.1509C99.1269 33.312 97.8549 31.632 95.7429 31.632ZM107.432 42.288C104.648 42.288 103.616 40.392 103.616 37.68V30.072H105.632V37.08C105.632 38.928 105.944 40.512 108.128 40.512C110.024 40.512 111.152 39.168 111.152 36.624V30.072H113.168V42H111.656L111.152 40.272C110.48 41.424 109.4 42.288 107.432 42.288ZM116.532 30.096H117.996L118.644 32.304C119.484 30.864 120.9 29.904 122.892 29.904V31.992C119.628 31.992 118.548 33.72 118.548 36.888V42H116.532V30.096Z" fill="black"/>
<path d="M125.272 36.048C125.272 35.208 125.968 34.512 126.808 34.512C127.672 34.512 128.368 35.208 128.368 36.048C128.368 36.912 127.672 37.608 126.808 37.608C125.968 37.608 125.272 36.912 125.272 36.048Z" fill="black"/>
<path d="M134.496 42H130.848V30.096H133.728L134.376 32.28C135.12 30.36 136.392 29.664 138.216 29.76V33.408C137.832 33.36 137.568 33.336 137.232 33.336C135.456 33.336 134.496 34.104 134.496 36V42ZM139.506 32.88V30.096H145.434V42H141.762V32.88H139.506ZM143.61 28.128C142.41 28.128 141.45 27.144 141.45 25.968C141.45 24.768 142.41 23.808 143.61 23.808C144.81 23.808 145.77 24.768 145.77 25.968C145.77 27.144 144.81 28.128 143.61 28.128ZM153.172 42.288C149.236 42.288 147.076 39.744 147.076 35.976C147.076 32.232 149.548 29.76 153.172 29.76C155.212 29.76 157.444 30.528 158.548 32.88L155.5 33.984C155.116 32.976 154.3 32.592 153.388 32.592C152.068 32.592 150.796 33.48 150.796 36C150.796 38.592 152.092 39.456 153.388 39.456C154.396 39.456 155.116 39.024 155.524 38.328L158.5 39.408C157.276 41.568 155.068 42.288 153.172 42.288ZM159.545 35.976C159.545 32.184 162.449 29.76 165.929 29.76C169.841 29.76 172.265 32.76 172.025 36.96H163.217C163.337 38.64 164.633 39.456 165.977 39.456C167.105 39.456 167.921 39.096 168.377 38.568L171.281 39.624C170.033 41.448 168.017 42.288 166.073 42.288C162.209 42.288 159.545 39.912 159.545 35.976ZM166.025 32.472C164.657 32.472 163.433 33.168 163.217 34.8H168.641C168.593 33.264 167.441 32.472 166.025 32.472Z" fill="#444B5A"/>
<line x1="41" y1="49.5" x2="91" y2="49.5" stroke="#623B74"/>
<line x1="126" y1="49.5" x2="172" y2="49.5" stroke="#444B5A" stroke-dasharray="2 2"/>
<path d="M64.824 132V115.968H67.08V130.056H75.696V132H64.824ZM82.6815 132.288C78.9375 132.288 76.8495 129.576 76.8495 126.072C76.8495 122.304 79.3695 119.904 82.6335 119.904C86.4255 119.904 88.4175 123.192 88.1775 126.6H79.0095C79.1055 129.6 81.2175 130.512 82.6815 130.512C84.0255 130.512 84.9135 130.056 85.4655 129.336L87.4095 129.912C86.5455 131.304 84.9135 132.288 82.6815 132.288ZM82.6335 121.632C80.8335 121.632 79.2255 122.592 79.0335 124.992H86.0415C86.0175 123.312 84.7455 121.632 82.6335 121.632ZM95.331 132.288C91.923 132.288 89.787 129.696 89.787 126.096C89.787 122.544 92.019 119.904 95.547 119.904C97.683 119.904 99.267 121.128 100.035 122.592L98.187 123.264C97.659 122.304 96.627 121.68 95.403 121.68C93.603 121.68 91.971 123.072 91.971 126.072C91.971 129.072 93.627 130.512 95.403 130.512C96.699 130.512 97.707 129.84 98.235 128.952L100.083 129.624C99.195 131.16 97.443 132.288 95.331 132.288ZM101.355 120.096H103.371V117.096H105.387V120.096H107.691V121.704H105.387V128.688C105.387 129.912 105.459 130.224 106.611 130.224H107.691V132H106.179C103.899 132 103.371 131.496 103.371 129.024V121.704H101.355V120.096Z" fill="#623B74"/>
<path d="M113.504 132H109.856V120.096H112.736L113.384 122.28C114.128 120.36 115.4 119.664 117.224 119.76V123.408C116.84 123.36 116.576 123.336 116.24 123.336C114.464 123.336 113.504 124.104 113.504 126V132ZM118.514 122.88V120.096H124.442V132H120.77V122.88H118.514ZM122.618 118.128C121.418 118.128 120.458 117.144 120.458 115.968C120.458 114.768 121.418 113.808 122.618 113.808C123.818 113.808 124.778 114.768 124.778 115.968C124.778 117.144 123.818 118.128 122.618 118.128ZM132.18 132.288C128.244 132.288 126.084 129.744 126.084 125.976C126.084 122.232 128.556 119.76 132.18 119.76C134.22 119.76 136.452 120.528 137.556 122.88L134.508 123.984C134.124 122.976 133.308 122.592 132.396 122.592C131.076 122.592 129.804 123.48 129.804 126C129.804 128.592 131.1 129.456 132.396 129.456C133.404 129.456 134.124 129.024 134.532 128.328L137.508 129.408C136.284 131.568 134.076 132.288 132.18 132.288ZM138.553 125.976C138.553 122.184 141.457 119.76 144.937 119.76C148.849 119.76 151.273 122.76 151.033 126.96H142.225C142.345 128.64 143.641 129.456 144.985 129.456C146.113 129.456 146.929 129.096 147.385 128.568L150.289 129.624C149.041 131.448 147.025 132.288 145.081 132.288C141.217 132.288 138.553 129.912 138.553 125.976ZM145.033 122.472C143.665 122.472 142.441 123.168 142.225 124.8H147.649C147.601 123.264 146.449 122.472 145.033 122.472Z" fill="#444B5A"/>
<line x1="109" y1="140.5" x2="149" y2="140.5" stroke="#444B5A" stroke-dasharray="2 2"/>
</svg>
